# This file uses centimeters as units for non-parametric coordinates.

mtllib Artillery_Base.mtl
g default
v -12.490921 -0.488429 -29.594862
v -19.946693 -0.488429 -48.043388
v -31.559338 -0.488429 -62.684223
v -46.192112 -0.488429 -72.084206
v -62.412670 -0.488429 -75.323227
v -78.633232 -0.488429 -72.084206
v -93.266006 -0.488429 -62.684204
v -104.878632 -0.488429 -48.043381
v -112.334412 -0.488429 -29.594852
v -114.903481 -0.488429 -9.144513
v -112.334412 -0.488429 11.305828
v -104.878632 -0.488429 29.754347
v -93.265999 -0.488429 44.395172
v -78.633224 -0.488429 53.795162
v -62.412670 -0.488429 57.034172
v -46.192123 -0.488429 53.795158
v -31.559353 -0.488429 44.395164
v -19.946722 -0.488429 29.754341
v -12.490953 -0.488429 11.305822
v -9.921872 -0.488429 -9.144513
v -12.490921 14.442684 -29.594862
v -19.946693 14.442684 -48.043388
v -31.559338 14.442684 -62.684223
v -46.192112 14.442684 -72.084206
v -62.412670 14.442684 -75.323227
v -78.633232 14.442684 -72.084206
v -93.266006 14.442684 -62.684204
v -104.878632 14.442684 -48.043381
v -112.334412 14.442684 -29.594852
v -114.903481 14.442684 -9.144513
v -112.334412 14.442684 11.305828
v -104.878632 14.442684 29.754347
v -93.265999 14.442684 44.395172
v -78.633224 14.442684 53.795162
v -62.412670 14.442684 57.034172
v -46.192123 14.442684 53.795158
v -31.559353 14.442684 44.395164
v -19.946722 14.442684 29.754341
v -12.490953 14.442684 11.305822
v -9.921872 14.442684 -9.144513
v -62.412670 -0.488429 -9.144513
v -62.412670 14.442684 -9.144513
vt 0.894807 0.179543
vt 0.894807 0.102417
vt 0.957228 0.102417
vt 0.957228 0.179543
vt 0.894807 0.041209
vt 0.957228 0.041209
vt 0.894807 0.265037
vt 0.957228 0.265037
vt 0.894807 0.001912
vt 0.957228 0.001912
vt 0.894807 0.350532
vt 0.957228 0.350532
vt 0.894807 0.427657
vt 0.957228 0.427657
vt 0.894807 0.488865
vt 0.957228 0.488865
vt 0.894807 0.528162
vt 0.957228 0.528162
vt 0.929452 0.559236
vt 0.929452 0.627047
vt 0.867031 0.627047
vt 0.867031 0.559236
vt 0.929452 0.694859
vt 0.867031 0.694859
vt 0.929452 0.756032
vt 0.867031 0.756032
vt 0.929452 0.804580
vt 0.867031 0.804580
vt 0.935587 0.957899
vt 0.935587 0.880773
vt 0.998008 0.880773
vt 0.998008 0.957899
vt 0.935587 0.795279
vt 0.998008 0.795279
vt 0.935587 0.709784
vt 0.998008 0.709784
vt 0.935587 0.632658
vt 0.998008 0.632658
vt 0.935587 0.571451
vt 0.998008 0.571451
vt 0.935587 0.532154
vt 0.998008 0.532154
vt 0.798475 0.694859
vt 0.798475 0.627047
vt 0.860896 0.627047
vt 0.860896 0.694859
vt 0.798475 0.559236
vt 0.860896 0.559236
vt 0.398968 0.115958
vt 0.430137 0.193084
vt 0.221435 0.278578
vt 0.440877 0.278578
vt 0.350420 0.054750
vt 0.430137 0.364073
vt 0.289246 0.015453
vt 0.398967 0.441198
vt 0.221435 0.001912
vt 0.350420 0.502406
vt 0.153623 0.015453
vt 0.289246 0.541703
vt 0.092449 0.054751
vt 0.221435 0.555244
vt 0.043902 0.115958
vt 0.153623 0.541703
vt 0.012732 0.193084
vt 0.092449 0.502406
vt 0.001992 0.278578
vt 0.043902 0.441198
vt 0.012732 0.364073
vt 0.876642 0.364073
vt 0.845473 0.441198
vt 0.667940 0.278578
vt 0.796925 0.502406
vt 0.887382 0.278578
vt 0.735751 0.541703
vt 0.876642 0.193083
vt 0.667940 0.555244
vt 0.845472 0.115958
vt 0.600128 0.541703
vt 0.796925 0.054751
vt 0.538954 0.502406
vt 0.735751 0.015453
vt 0.490407 0.441198
vt 0.667940 0.001912
vt 0.459237 0.364073
vt 0.600128 0.015453
vt 0.448497 0.278578
vt 0.538954 0.054750
vt 0.459237 0.193083
vt 0.490407 0.115958
vn 0.503656 -0.854097 -0.129800
vn 0.437225 -0.863337 -0.251960
vn 0.437225 0.863337 -0.251960
vn 0.503656 0.854097 -0.129800
vn 0.326883 -0.875099 -0.356859
vn 0.326883 0.875099 -0.356859
vn 0.176579 -0.884881 -0.431052
vn 0.176579 0.884881 -0.431052
vn -0.000000 -0.888675 -0.458537
vn -0.000000 0.888675 -0.458537
vn -0.176580 -0.884881 -0.431052
vn -0.176580 0.884881 -0.431052
vn -0.326883 -0.875099 -0.356859
vn -0.326883 0.875099 -0.356859
vn -0.437225 -0.863337 -0.251960
vn -0.437225 0.863337 -0.251960
vn -0.503656 -0.854097 -0.129800
vn -0.503656 0.854097 -0.129800
vn -0.525758 -0.850634 0.000000
vn -0.525758 0.850634 0.000000
vn -0.503656 -0.854097 0.129800
vn -0.503656 0.854097 0.129800
vn -0.437225 -0.863337 0.251960
vn -0.437225 0.863337 0.251960
vn -0.326883 -0.875099 0.356859
vn -0.326883 0.875099 0.356859
vn -0.176580 -0.884881 0.431052
vn -0.176580 0.884881 0.431052
vn 0.000000 -0.888675 0.458537
vn 0.000000 0.888675 0.458537
vn 0.176580 -0.884881 0.431052
vn 0.176580 0.884881 0.431052
vn 0.326883 -0.875099 0.356859
vn 0.326883 0.875099 0.356859
vn 0.437225 -0.863337 0.251960
vn 0.437225 0.863337 0.251960
vn 0.503656 -0.854097 0.129800
vn 0.503656 0.854097 0.129800
vn 0.525758 -0.850634 0.000000
vn 0.525758 0.850634 0.000000
vn 0.000000 -1.000000 -0.000000
vn 0.000000 1.000000 -0.000000
s 1
g Artillery_BaseCircle ArtilleryBase_Control
usemtl initialShadingGroup
f 1/1/1 2/2/2 22/3/3 21/4/4
f 2/2/2 3/5/5 23/6/6 22/3/3
f 3/5/5 4/9/7 24/10/8 23/6/6
f 4/19/7 5/20/9 25/21/10 24/22/8
f 5/20/9 6/23/11 26/24/12 25/21/10
f 6/23/11 7/25/13 27/26/14 26/24/12
f 7/25/13 8/27/15 28/28/16 27/26/14
f 8/29/15 9/30/17 29/31/18 28/32/16
f 9/30/17 10/33/19 30/34/20 29/31/18
f 10/33/19 11/35/21 31/36/22 30/34/20
f 11/35/21 12/37/23 32/38/24 31/36/22
f 12/37/23 13/39/25 33/40/26 32/38/24
f 13/39/25 14/41/27 34/42/28 33/40/26
f 14/43/27 15/44/29 35/45/30 34/46/28
f 15/44/29 16/47/31 36/48/32 35/45/30
f 16/17/31 17/15/33 37/16/34 36/18/32
f 17/15/33 18/13/35 38/14/36 37/16/34
f 18/13/35 19/11/37 39/12/38 38/14/36
f 19/11/37 20/7/39 40/8/40 39/12/38
f 20/7/39 1/1/1 21/4/4 40/8/40
f 2/49/2 1/50/1 41/51/41
f 3/53/5 2/49/2 41/51/41
f 4/55/7 3/53/5 41/51/41
f 5/57/9 4/55/7 41/51/41
f 6/59/11 5/57/9 41/51/41
f 7/61/13 6/59/11 41/51/41
f 8/63/15 7/61/13 41/51/41
f 9/65/17 8/63/15 41/51/41
f 10/67/19 9/65/17 41/51/41
f 11/69/21 10/67/19 41/51/41
f 12/68/23 11/69/21 41/51/41
f 13/66/25 12/68/23 41/51/41
f 14/64/27 13/66/25 41/51/41
f 15/62/29 14/64/27 41/51/41
f 16/60/31 15/62/29 41/51/41
f 17/58/33 16/60/31 41/51/41
f 18/56/35 17/58/33 41/51/41
f 19/54/37 18/56/35 41/51/41
f 20/52/39 19/54/37 41/51/41
f 1/50/1 20/52/39 41/51/41
f 21/70/4 22/71/3 42/72/42
f 22/71/3 23/73/6 42/72/42
f 23/73/6 24/75/8 42/72/42
f 24/75/8 25/77/10 42/72/42
f 25/77/10 26/79/12 42/72/42
f 26/79/12 27/81/14 42/72/42
f 27/81/14 28/83/16 42/72/42
f 28/83/16 29/85/18 42/72/42
f 29/85/18 30/87/20 42/72/42
f 30/87/20 31/89/22 42/72/42
f 31/89/22 32/90/24 42/72/42
f 32/90/24 33/88/26 42/72/42
f 33/88/26 34/86/28 42/72/42
f 34/86/28 35/84/30 42/72/42
f 35/84/30 36/82/32 42/72/42
f 36/82/32 37/80/34 42/72/42
f 37/80/34 38/78/36 42/72/42
f 38/78/36 39/76/38 42/72/42
f 39/76/38 40/74/40 42/72/42
f 40/74/40 21/70/4 42/72/42
