# This file uses centimeters as units for non-parametric coordinates.

mtllib CMDCTR_ArtGunBase_PosFix.mtl
g default1
v 49.921757 -7.465557 -20.450335
v 42.465984 -7.465557 -38.898861
v 30.853340 -7.465557 -53.539696
v 16.220566 -7.465557 -62.939678
v 0.000008 -7.465557 -66.178696
v -16.220554 -7.465557 -62.939678
v -30.853329 -7.465557 -53.539677
v -42.465954 -7.465557 -38.898853
v -49.921734 -7.465557 -20.450325
v -52.490803 -7.465557 0.000014
v -49.921734 -7.465557 20.450356
v -42.465954 -7.465557 38.898872
v -30.853321 -7.465557 53.539700
v -16.220547 -7.465557 62.939690
v 0.000008 -7.465557 66.178696
v 16.220554 -7.465557 62.939686
v 30.853325 -7.465557 53.539692
v 42.465958 -7.465557 38.898869
v 49.921722 -7.465557 20.450350
v 52.490807 -7.465557 0.000014
v 49.921757 7.465557 -20.450335
v 42.465984 7.465557 -38.898861
v 30.853340 7.465557 -53.539696
v 16.220566 7.465557 -62.939678
v 0.000008 7.465557 -66.178696
v -16.220554 7.465557 -62.939678
v -30.853329 7.465557 -53.539677
v -42.465954 7.465557 -38.898853
v -49.921734 7.465557 -20.450325
v -52.490803 7.465557 0.000014
v -49.921734 7.465557 20.450356
v -42.465954 7.465557 38.898872
v -30.853321 7.465557 53.539700
v -16.220547 7.465557 62.939690
v 0.000008 7.465557 66.178696
v 16.220554 7.465557 62.939686
v 30.853325 7.465557 53.539692
v 42.465958 7.465557 38.898869
v 49.921722 7.465557 20.450350
v 52.490807 7.465557 0.000014
v 0.000008 -7.465557 0.000014
v 0.000008 7.465557 0.000014
vt 0.894807 0.179543
vt 0.894807 0.102417
vt 0.957228 0.102417
vt 0.957228 0.179543
vt 0.894807 0.041209
vt 0.957228 0.041209
vt 0.894807 0.265037
vt 0.957228 0.265037
vt 0.894807 0.001912
vt 0.957228 0.001912
vt 0.894807 0.350532
vt 0.957228 0.350532
vt 0.894807 0.427657
vt 0.957228 0.427657
vt 0.894807 0.488865
vt 0.957228 0.488865
vt 0.894807 0.528162
vt 0.957228 0.528162
vt 0.929452 0.559236
vt 0.929452 0.627047
vt 0.867031 0.627047
vt 0.867031 0.559236
vt 0.929452 0.694859
vt 0.867031 0.694859
vt 0.929452 0.756032
vt 0.867031 0.756032
vt 0.929452 0.804580
vt 0.867031 0.804580
vt 0.935587 0.957899
vt 0.935587 0.880773
vt 0.998008 0.880773
vt 0.998008 0.957899
vt 0.935587 0.795279
vt 0.998008 0.795279
vt 0.935587 0.709784
vt 0.998008 0.709784
vt 0.935587 0.632658
vt 0.998008 0.632658
vt 0.935587 0.571451
vt 0.998008 0.571451
vt 0.935587 0.532154
vt 0.998008 0.532154
vt 0.798475 0.694859
vt 0.798475 0.627047
vt 0.860896 0.627047
vt 0.860896 0.694859
vt 0.798475 0.559236
vt 0.860896 0.559236
vt 0.398968 0.115958
vt 0.430137 0.193084
vt 0.221435 0.278578
vt 0.440877 0.278578
vt 0.350420 0.054750
vt 0.430137 0.364073
vt 0.289246 0.015453
vt 0.398967 0.441198
vt 0.221435 0.001912
vt 0.350420 0.502406
vt 0.153623 0.015453
vt 0.289246 0.541703
vt 0.092449 0.054751
vt 0.221435 0.555244
vt 0.043902 0.115958
vt 0.153623 0.541703
vt 0.012732 0.193084
vt 0.092449 0.502406
vt 0.001992 0.278578
vt 0.043902 0.441198
vt 0.012732 0.364073
vt 0.876642 0.364073
vt 0.845473 0.441198
vt 0.667940 0.278578
vt 0.796925 0.502406
vt 0.887382 0.278578
vt 0.735751 0.541703
vt 0.876642 0.193083
vt 0.667940 0.555244
vt 0.845472 0.115958
vt 0.600128 0.541703
vt 0.796925 0.054751
vt 0.538954 0.502406
vt 0.735751 0.015453
vt 0.490407 0.441198
vt 0.667940 0.001912
vt 0.459237 0.364073
vt 0.600128 0.015453
vt 0.448497 0.278578
vt 0.538954 0.054750
vt 0.459237 0.193083
vt 0.490407 0.115958
vn 0.503656 -0.854097 -0.129800
vn 0.437225 -0.863337 -0.251960
vn 0.437225 0.863337 -0.251960
vn 0.503656 0.854097 -0.129800
vn 0.437225 -0.863337 -0.251960
vn 0.326883 -0.875099 -0.356859
vn 0.326883 0.875099 -0.356859
vn 0.437225 0.863337 -0.251960
vn 0.326883 -0.875099 -0.356859
vn 0.176579 -0.884881 -0.431052
vn 0.176579 0.884881 -0.431052
vn 0.326883 0.875099 -0.356859
vn 0.176579 -0.884881 -0.431052
vn 0.000000 -0.888675 -0.458537
vn 0.000000 0.888675 -0.458537
vn 0.176579 0.884881 -0.431052
vn 0.000000 -0.888675 -0.458537
vn -0.176580 -0.884881 -0.431052
vn -0.176580 0.884881 -0.431052
vn 0.000000 0.888675 -0.458537
vn -0.176580 -0.884881 -0.431052
vn -0.326883 -0.875099 -0.356859
vn -0.326883 0.875099 -0.356859
vn -0.176580 0.884881 -0.431052
vn -0.326883 -0.875099 -0.356859
vn -0.437225 -0.863337 -0.251960
vn -0.437225 0.863337 -0.251960
vn -0.326883 0.875099 -0.356859
vn -0.437225 -0.863337 -0.251960
vn -0.503656 -0.854097 -0.129800
vn -0.503656 0.854097 -0.129800
vn -0.437225 0.863337 -0.251960
vn -0.503656 -0.854097 -0.129800
vn -0.525758 -0.850634 0.000000
vn -0.525758 0.850634 0.000000
vn -0.503656 0.854097 -0.129800
vn -0.525758 -0.850634 0.000000
vn -0.503656 -0.854097 0.129800
vn -0.503656 0.854097 0.129800
vn -0.525758 0.850634 0.000000
vn -0.503656 -0.854097 0.129800
vn -0.437225 -0.863337 0.251960
vn -0.437225 0.863337 0.251960
vn -0.503656 0.854097 0.129800
vn -0.437225 -0.863337 0.251960
vn -0.326883 -0.875099 0.356859
vn -0.326883 0.875099 0.356859
vn -0.437225 0.863337 0.251960
vn -0.326883 -0.875099 0.356859
vn -0.176580 -0.884881 0.431052
vn -0.176580 0.884881 0.431052
vn -0.326883 0.875099 0.356859
vn -0.176580 -0.884881 0.431052
vn 0.000000 -0.888675 0.458537
vn 0.000000 0.888675 0.458537
vn -0.176580 0.884881 0.431052
vn 0.000000 -0.888675 0.458537
vn 0.176580 -0.884881 0.431052
vn 0.176580 0.884881 0.431052
vn 0.000000 0.888675 0.458537
vn 0.176580 -0.884881 0.431052
vn 0.326883 -0.875099 0.356859
vn 0.326883 0.875099 0.356859
vn 0.176580 0.884881 0.431052
vn 0.326883 -0.875099 0.356859
vn 0.437225 -0.863337 0.251960
vn 0.437225 0.863337 0.251960
vn 0.326883 0.875099 0.356859
vn 0.437225 -0.863337 0.251960
vn 0.503656 -0.854097 0.129800
vn 0.503656 0.854097 0.129800
vn 0.437225 0.863337 0.251960
vn 0.503656 -0.854097 0.129800
vn 0.525758 -0.850634 0.000000
vn 0.525758 0.850634 0.000000
vn 0.503656 0.854097 0.129800
vn 0.525758 -0.850634 0.000000
vn 0.503656 -0.854097 -0.129800
vn 0.503656 0.854097 -0.129800
vn 0.525758 0.850634 0.000000
vn 0.437225 -0.863337 -0.251960
vn 0.503656 -0.854097 -0.129800
vn 0.000000 -1.000000 0.000000
vn 0.326883 -0.875099 -0.356859
vn 0.437225 -0.863337 -0.251960
vn 0.000000 -1.000000 0.000000
vn 0.176579 -0.884881 -0.431052
vn 0.326883 -0.875099 -0.356859
vn 0.000000 -1.000000 0.000000
vn 0.000000 -0.888675 -0.458537
vn 0.176579 -0.884881 -0.431052
vn 0.000000 -1.000000 0.000000
vn -0.176580 -0.884881 -0.431052
vn 0.000000 -0.888675 -0.458537
vn 0.000000 -1.000000 0.000000
vn -0.326883 -0.875099 -0.356859
vn -0.176580 -0.884881 -0.431052
vn 0.000000 -1.000000 0.000000
vn -0.437225 -0.863337 -0.251960
vn -0.326883 -0.875099 -0.356859
vn 0.000000 -1.000000 0.000000
vn -0.503656 -0.854097 -0.129800
vn -0.437225 -0.863337 -0.251960
vn 0.000000 -1.000000 0.000000
vn -0.525758 -0.850634 0.000000
vn -0.503656 -0.854097 -0.129800
vn 0.000000 -1.000000 0.000000
vn -0.503656 -0.854097 0.129800
vn -0.525758 -0.850634 0.000000
vn 0.000000 -1.000000 0.000000
vn -0.437225 -0.863337 0.251960
vn -0.503656 -0.854097 0.129800
vn 0.000000 -1.000000 0.000000
vn -0.326883 -0.875099 0.356859
vn -0.437225 -0.863337 0.251960
vn 0.000000 -1.000000 0.000000
vn -0.176580 -0.884881 0.431052
vn -0.326883 -0.875099 0.356859
vn 0.000000 -1.000000 0.000000
vn 0.000000 -0.888675 0.458537
vn -0.176580 -0.884881 0.431052
vn 0.000000 -1.000000 0.000000
vn 0.176580 -0.884881 0.431052
vn 0.000000 -0.888675 0.458537
vn 0.000000 -1.000000 0.000000
vn 0.326883 -0.875099 0.356859
vn 0.176580 -0.884881 0.431052
vn 0.000000 -1.000000 0.000000
vn 0.437225 -0.863337 0.251960
vn 0.326883 -0.875099 0.356859
vn 0.000000 -1.000000 0.000000
vn 0.503656 -0.854097 0.129800
vn 0.437225 -0.863337 0.251960
vn 0.000000 -1.000000 0.000000
vn 0.525758 -0.850634 0.000000
vn 0.503656 -0.854097 0.129800
vn 0.000000 -1.000000 0.000000
vn 0.503656 -0.854097 -0.129800
vn 0.525758 -0.850634 0.000000
vn 0.000000 -1.000000 0.000000
vn 0.503656 0.854097 -0.129800
vn 0.437225 0.863337 -0.251960
vn 0.000000 1.000000 0.000000
vn 0.437225 0.863337 -0.251960
vn 0.326883 0.875099 -0.356859
vn 0.000000 1.000000 0.000000
vn 0.326883 0.875099 -0.356859
vn 0.176579 0.884881 -0.431052
vn 0.000000 1.000000 0.000000
vn 0.176579 0.884881 -0.431052
vn 0.000000 0.888675 -0.458537
vn 0.000000 1.000000 0.000000
vn 0.000000 0.888675 -0.458537
vn -0.176580 0.884881 -0.431052
vn 0.000000 1.000000 0.000000
vn -0.176580 0.884881 -0.431052
vn -0.326883 0.875099 -0.356859
vn 0.000000 1.000000 0.000000
vn -0.326883 0.875099 -0.356859
vn -0.437225 0.863337 -0.251960
vn 0.000000 1.000000 0.000000
vn -0.437225 0.863337 -0.251960
vn -0.503656 0.854097 -0.129800
vn 0.000000 1.000000 0.000000
vn -0.503656 0.854097 -0.129800
vn -0.525758 0.850634 0.000000
vn 0.000000 1.000000 0.000000
vn -0.525758 0.850634 0.000000
vn -0.503656 0.854097 0.129800
vn 0.000000 1.000000 0.000000
vn -0.503656 0.854097 0.129800
vn -0.437225 0.863337 0.251960
vn 0.000000 1.000000 0.000000
vn -0.437225 0.863337 0.251960
vn -0.326883 0.875099 0.356859
vn 0.000000 1.000000 0.000000
vn -0.326883 0.875099 0.356859
vn -0.176580 0.884881 0.431052
vn 0.000000 1.000000 0.000000
vn -0.176580 0.884881 0.431052
vn 0.000000 0.888675 0.458537
vn 0.000000 1.000000 0.000000
vn 0.000000 0.888675 0.458537
vn 0.176580 0.884881 0.431052
vn 0.000000 1.000000 0.000000
vn 0.176580 0.884881 0.431052
vn 0.326883 0.875099 0.356859
vn 0.000000 1.000000 0.000000
vn 0.326883 0.875099 0.356859
vn 0.437225 0.863337 0.251960
vn 0.000000 1.000000 0.000000
vn 0.437225 0.863337 0.251960
vn 0.503656 0.854097 0.129800
vn 0.000000 1.000000 0.000000
vn 0.503656 0.854097 0.129800
vn 0.525758 0.850634 0.000000
vn 0.000000 1.000000 0.000000
vn 0.525758 0.850634 0.000000
vn 0.503656 0.854097 -0.129800
vn 0.000000 1.000000 0.000000
s off
g ArtilleryBase_Control Artillery_BaseCircle polySurface1
usemtl initialShadingGroup
f 1/1/1 2/2/2 22/3/3 21/4/4
f 2/2/5 3/5/6 23/6/7 22/3/8
f 3/5/9 4/9/10 24/10/11 23/6/12
f 4/19/13 5/20/14 25/21/15 24/22/16
f 5/20/17 6/23/18 26/24/19 25/21/20
f 6/23/21 7/25/22 27/26/23 26/24/24
f 7/25/25 8/27/26 28/28/27 27/26/28
f 8/29/29 9/30/30 29/31/31 28/32/32
f 9/30/33 10/33/34 30/34/35 29/31/36
f 10/33/37 11/35/38 31/36/39 30/34/40
f 11/35/41 12/37/42 32/38/43 31/36/44
f 12/37/45 13/39/46 33/40/47 32/38/48
f 13/39/49 14/41/50 34/42/51 33/40/52
f 14/43/53 15/44/54 35/45/55 34/46/56
f 15/44/57 16/47/58 36/48/59 35/45/60
f 16/17/61 17/15/62 37/16/63 36/18/64
f 17/15/65 18/13/66 38/14/67 37/16/68
f 18/13/69 19/11/70 39/12/71 38/14/72
f 19/11/73 20/7/74 40/8/75 39/12/76
f 20/7/77 1/1/78 21/4/79 40/8/80
f 2/49/81 1/50/82 41/51/83
f 3/53/84 2/49/85 41/51/86
f 4/55/87 3/53/88 41/51/89
f 5/57/90 4/55/91 41/51/92
f 6/59/93 5/57/94 41/51/95
f 7/61/96 6/59/97 41/51/98
f 8/63/99 7/61/100 41/51/101
f 9/65/102 8/63/103 41/51/104
f 10/67/105 9/65/106 41/51/107
f 11/69/108 10/67/109 41/51/110
f 12/68/111 11/69/112 41/51/113
f 13/66/114 12/68/115 41/51/116
f 14/64/117 13/66/118 41/51/119
f 15/62/120 14/64/121 41/51/122
f 16/60/123 15/62/124 41/51/125
f 17/58/126 16/60/127 41/51/128
f 18/56/129 17/58/130 41/51/131
f 19/54/132 18/56/133 41/51/134
f 20/52/135 19/54/136 41/51/137
f 1/50/138 20/52/139 41/51/140
f 21/70/141 22/71/142 42/72/143
f 22/71/144 23/73/145 42/72/146
f 23/73/147 24/75/148 42/72/149
f 24/75/150 25/77/151 42/72/152
f 25/77/153 26/79/154 42/72/155
f 26/79/156 27/81/157 42/72/158
f 27/81/159 28/83/160 42/72/161
f 28/83/162 29/85/163 42/72/164
f 29/85/165 30/87/166 42/72/167
f 30/87/168 31/89/169 42/72/170
f 31/89/171 32/90/172 42/72/173
f 32/90/174 33/88/175 42/72/176
f 33/88/177 34/86/178 42/72/179
f 34/86/180 35/84/181 42/72/182
f 35/84/183 36/82/184 42/72/185
f 36/82/186 37/80/187 42/72/188
f 37/80/189 38/78/190 42/72/191
f 38/78/192 39/76/193 42/72/194
f 39/76/195 40/74/196 42/72/197
f 40/74/198 21/70/199 42/72/200
