# This file uses centimeters as units for non-parametric coordinates.

mtllib CodePaper.mtl
g default
v 82.206153 28.361939 0.626590
v 83.743896 28.361939 1.398310
v 85.281639 28.361939 2.170029
v 86.819382 28.361939 2.941748
v 83.404846 28.361939 -1.761950
v 84.942590 28.361939 -0.990231
v 86.480333 28.361939 -0.218511
v 88.018076 28.361939 0.553208
v 84.603540 28.361939 -4.150491
v 86.141283 28.361939 -3.378771
v 87.679027 28.361939 -2.607052
v 89.216770 28.361939 -1.835333
v 85.802234 28.361939 -6.539031
v 87.339977 28.361939 -5.767312
v 88.877720 28.361939 -4.995592
v 90.415463 28.361939 -4.223873
vt 0.001992 0.001992
vt 0.333997 0.001992
vt 0.333997 0.333998
vt 0.001992 0.333998
vt 0.666002 0.001992
vt 0.666002 0.333998
vt 0.333997 0.666003
vt 0.001992 0.666003
vt 0.998007 0.001992
vt 0.998007 0.333998
vt 0.666002 0.666003
vt 0.333997 0.998008
vt 0.001992 0.998008
vt 0.998007 0.666003
vt 0.666002 0.998008
vt 0.998007 0.998008
vn -0.000000 1.000000 0.000000
vn -0.000000 1.000000 0.000000
vn -0.000000 1.000000 0.000000
vn -0.000000 1.000000 0.000000
vn -0.000000 1.000000 0.000000
vn -0.000000 1.000000 0.000000
vn -0.000000 1.000000 0.000000
vn -0.000000 1.000000 0.000000
vn -0.000000 1.000000 0.000000
vn -0.000000 1.000000 0.000000
vn -0.000000 1.000000 0.000000
vn -0.000000 1.000000 0.000000
vn -0.000000 1.000000 0.000000
vn -0.000000 1.000000 0.000000
vn -0.000000 1.000000 0.000000
vn -0.000000 1.000000 0.000000
s 1
g pPlane1
usemtl initialShadingGroup
f 1/1/1 2/2/2 6/3/3 5/4/4
f 2/2/2 3/5/5 7/6/6 6/3/3
f 3/5/5 4/9/7 8/10/8 7/6/6
f 5/4/4 6/3/3 10/7/9 9/8/10
f 6/3/3 7/6/6 11/11/11 10/7/9
f 7/6/6 8/10/8 12/14/12 11/11/11
f 9/8/10 10/7/9 14/12/13 13/13/14
f 10/7/9 11/11/11 15/15/15 14/12/13
f 11/11/11 12/14/12 16/16/16 15/15/15
