# This file uses centimeters as units for non-parametric coordinates.

mtllib CommanderArea_Floor.mtl
g default
v -535.045335 -133.443497 108.129617
v 374.430194 -133.443497 66.209210
v -186.396630 4.586191 82.360544
v 247.713071 9.605235 15.651751
v -186.396630 4.586191 -259.705792
v 210.921937 1.789182 -240.000240
v -535.045335 -133.443497 -259.705792
v 374.430194 -133.443497 -259.705792
v 270.228150 -3.986178 66.209210
v -315.962628 -19.685295 108.129617
v -266.042659 -12.559003 -259.705792
v 270.228150 -3.986178 -259.705792
v 80.039630 3.826560 51.149415
v 80.039630 1.789182 -259.705792
v 80.039630 -3.986178 -259.705792
v 80.039630 -133.443497 -259.705792
v 80.039630 -133.443497 108.129617
v 80.039630 -3.874203 117.341975
v 26.679878 3.826560 51.149415
v 26.679878 1.789182 -259.705792
v 26.679878 -3.986178 -259.705792
v 26.679878 -133.443497 -259.705792
v 26.679878 -133.443497 108.129617
v 26.679878 -3.874203 117.341975
v -26.679880 1.933693 60.567474
v -26.679880 1.789182 -259.705792
v -26.679880 -3.986178 -259.705792
v -26.679880 -133.443497 -259.705792
v -26.679880 -133.443497 108.129617
v -26.679880 -3.986178 121.714702
v -80.039630 1.933693 60.567474
v -80.039630 1.789182 -259.705792
v -80.039630 -3.986178 -259.705792
v -80.039630 -149.142605 -259.705792
v -80.039630 -133.443497 108.129617
v -80.039630 -3.986178 121.714702
v 80.039630 -37.312022 115.292582
v 26.679878 -37.312022 115.292582
v -26.679880 -37.312022 114.429936
v -80.039630 -37.312022 114.429936
v -535.045335 -37.312022 108.129617
v -535.045335 -37.312022 -259.705792
v -80.039630 -53.011140 -259.705792
v -26.679880 -53.011140 -259.705792
v 26.679878 -37.312022 -259.705792
v 80.039630 -37.312022 -259.705792
v 374.430194 -37.312022 -259.705792
v 374.430194 -37.312022 66.209210
vt 0.670674 0.461236
vt 0.670674 0.231409
vt 0.845598 0.231409
vt 0.845598 0.461236
vt 0.670674 0.204456
vt 0.845598 0.204456
vt 0.906240 0.231409
vt 0.877676 0.350574
vt 0.670674 0.177503
vt 0.845598 0.177503
vt 0.906240 0.204456
vt 0.670674 0.150553
vt 0.845598 0.150553
vt 0.906445 0.177503
vt 0.845598 0.001852
vt 0.670674 0.001852
vt 0.906445 0.150553
vt 0.906240 0.054487
vt 0.649876 0.748510
vt 0.672055 0.694786
vt 0.998007 0.694786
vt 0.998007 0.748510
vt 0.623650 0.813951
vt 0.609828 0.694786
vt 0.672055 0.667829
vt 0.998007 0.667829
vt 0.998007 0.788748
vt 0.609828 0.667829
vt 0.681640 0.640887
vt 0.998007 0.640887
vt 0.998007 0.924613
vt 0.623650 0.924613
vt 0.614284 0.640887
vt 0.681640 0.613930
vt 0.998007 0.613930
vt 0.614284 0.613930
vt 0.717772 0.529231
vt 0.977946 0.547816
vt 0.666313 0.517864
vt 0.998007 0.517864
vt 0.998007 0.613930
vt 0.666313 0.465236
vt 0.998007 0.465236
vt 0.078230 0.461233
vt 0.106779 0.231405
vt 0.281728 0.231405
vt 0.253150 0.461233
vt 0.033199 0.325353
vt 0.017595 0.231405
vt 0.106779 0.204434
vt 0.253150 0.204434
vt 0.001991 0.285114
vt 0.007075 0.231405
vt 0.017595 0.204434
vt 0.078230 0.177492
vt 0.253150 0.177492
vt 0.007075 0.204434
vt 0.017595 0.177492
vt 0.007075 0.177492
vt 0.078230 0.150520
vt 0.017595 0.150520
vt 0.078230 0.001841
vt 0.017595 0.054469
vt 0.253150 0.150520
vt 0.253150 0.001841
vt 0.288680 0.461244
vt 0.288680 0.231413
vt 0.663029 0.231413
vt 0.663029 0.461244
vt 0.288680 0.204463
vt 0.663029 0.204463
vt 0.288680 0.177506
vt 0.663029 0.177506
vt 0.288680 0.150557
vt 0.663029 0.150557
vt 0.288680 0.001856
vt 0.620366 0.001856
vt 0.247711 0.796922
vt 0.247711 0.465229
vt 0.422631 0.465229
vt 0.422631 0.796922
vt 0.428775 0.839575
vt 0.428775 0.465229
vt 0.603699 0.465229
vt 0.603699 0.839575
vt 0.208492 0.492178
vt 0.197972 0.492178
vt 0.197972 0.465207
vt 0.208492 0.465207
vt 0.214625 0.640127
vt 0.214625 0.465207
vt 0.241574 0.465207
vt 0.241574 0.640127
vn -0.214774 -0.940423 0.263585
vn -0.001545 -0.962954 0.269660
vn -0.009003 -0.039689 0.999172
vn -0.401095 0.814242 0.419682
vn -0.102418 0.993961 0.039398
vn 0.013688 0.999516 0.027947
vn 0.017219 0.999138 -0.037774
vn -0.088489 0.995466 -0.034873
vn -0.397158 0.826137 -0.399704
vn 0.000000 0.000000 -1.000000
vn -0.000447 -0.978974 -0.203985
vn -0.215925 -0.944858 -0.246209
vn 0.275486 -0.936178 0.218355
vn 0.283534 -0.924130 -0.256109
vn 0.666880 0.536781 -0.516853
vn 0.707119 0.509762 0.490026
vn -0.112530 0.985157 0.129625
vn -0.027692 0.661402 0.749521
vn -0.118515 0.975305 -0.186372
vn -0.000000 0.000000 -1.000000
vn 0.252907 0.938539 0.234909
vn 0.278195 0.921838 -0.269858
vn 0.040287 0.998505 -0.036937
vn 0.050359 0.998725 0.003528
vn -0.004043 0.999407 0.034182
vn -0.012076 0.999285 -0.035837
vn 0.005060 0.166635 -0.986006
vn 0.000000 -0.964306 -0.264789
vn 0.000000 0.000000 -1.000000
vn 0.039922 -0.951589 0.304768
vn 0.138289 0.019332 0.990203
vn 0.104900 0.751953 0.650817
vn -0.008844 0.999891 0.011854
vn -0.009086 0.999684 -0.023426
vn 0.000000 0.000000 -1.000000
vn -0.000000 -0.969988 -0.243151
vn -0.000000 0.000000 -1.000000
vn -0.001004 -0.968643 0.248456
vn 0.001259 -0.079312 0.996849
vn 0.004907 0.845266 0.534323
vn -0.006862 0.999800 0.018770
vn -0.008952 0.999758 -0.020104
vn 0.000000 0.000000 -1.000000
vn 0.070438 -0.957644 -0.279206
vn -0.000000 0.000000 -1.000000
vn 0.068657 -0.963808 0.257606
vn 0.001239 -0.096006 0.995380
vn 0.006136 0.804560 0.593840
s 1
g pCube24
usemtl initialShadingGroup
f 1/1/1 35/2/2 40/3/3 41/4/4
f 3/19/5 31/20/6 32/21/7 5/22/8
f 42/44/9 43/45/10 34/46/11 7/47/12
f 7/66/12 34/67/11 35/68/2 1/69/1
f 2/78/13 8/79/14 47/80/15 48/81/16
f 7/82/12 1/83/1 41/84/4 42/85/9
f 10/23/17 36/24/18 31/20/6 3/19/5
f 11/27/19 10/23/17 3/19/5 5/22/8
f 5/52/8 32/53/7 33/49/20 11/48/19
f 9/39/21 12/40/22 6/38/23 4/37/24
f 13/34/25 4/37/24 6/38/23 14/35/26
f 15/41/27 14/35/26 6/38/23 12/40/22
f 16/64/28 46/60/29 47/62/15 8/65/14
f 17/75/30 16/74/28 8/76/14 2/77/13
f 48/15/16 37/13/31 17/12/30 2/16/13
f 13/34/25 18/36/32 9/39/21 4/37/24
f 19/29/33 13/34/25 14/35/26 20/30/34
f 21/86/35 20/87/34 14/88/26 15/89/27
f 22/90/36 45/91/37 46/92/29 16/93/28
f 23/73/38 22/72/36 16/74/28 17/75/30
f 38/10/39 23/9/38 17/12/30 37/13/31
f 19/29/33 24/33/40 18/36/32 13/34/25
f 25/25/41 19/29/33 20/30/34 26/26/42
f 27/54/43 26/57/42 20/59/34 21/58/35
f 28/51/44 44/50/45 45/55/37 22/56/36
f 29/71/46 28/70/44 22/72/36 23/73/38
f 39/6/47 29/5/46 23/9/38 38/10/39
f 25/25/41 30/28/48 24/33/40 19/29/33
f 31/20/6 25/25/41 26/26/42 32/21/7
f 33/49/20 32/53/7 26/57/42 27/54/43
f 34/46/11 43/45/10 44/50/45 28/51/44
f 35/68/2 34/67/11 28/70/44 29/71/46
f 40/3/3 35/2/2 29/5/46 39/6/47
f 31/20/6 36/24/18 30/28/48 25/25/41
f 24/14/40 38/10/39 37/13/31 18/17/32
f 30/11/48 39/6/47 38/10/39 24/14/40
f 36/7/18 40/3/3 39/6/47 30/11/48
f 41/4/4 40/3/3 36/7/18 10/8/17
f 42/31/9 41/32/4 10/23/17 11/27/19
f 11/48/19 33/49/20 43/45/10 42/44/9
f 44/50/45 43/45/10 33/49/20 27/54/43
f 45/55/37 44/50/45 27/54/43 21/58/35
f 46/60/29 45/55/37 21/58/35 15/61/27
f 47/62/15 46/60/29 15/61/27 12/63/22
f 48/42/16 47/43/15 12/40/22 9/39/21
f 18/17/32 37/13/31 48/15/16 9/18/21
