# This file uses centimeters as units for non-parametric coordinates.

mtllib CommanderTable.mtl
g default
v 57.281337 3.384166 15.086761
v 60.108997 3.384166 15.086761
v 57.646892 25.174785 14.553172
v 59.743442 25.174785 14.553172
v 57.646892 25.174785 11.492908
v 59.743442 25.174785 11.492908
v 57.281337 3.384166 10.959319
v 60.108997 3.384166 10.959319
v 57.311134 15.918133 11.002811
v 57.311134 15.918134 15.043269
v 60.079200 15.918134 15.043269
v 60.079200 15.918133 11.002811
v 57.281337 3.384166 -4.701272
v 60.108997 3.384166 -4.701272
v 57.646892 25.174785 -5.234860
v 59.743442 25.174785 -5.234860
v 57.646892 25.174785 -8.295129
v 59.743442 25.174785 -8.295129
v 57.281337 3.384166 -8.828717
v 60.108997 3.384166 -8.828717
v 57.311134 15.918133 -8.785224
v 57.311134 15.918134 -4.744765
v 60.079200 15.918134 -4.744765
v 60.079200 15.918133 -8.785224
v 98.390414 3.384166 -4.701272
v 101.218066 3.384166 -4.701272
v 98.755969 25.174785 -5.234860
v 100.852512 25.174785 -5.234860
v 98.755969 25.174785 -8.295129
v 100.852512 25.174785 -8.295129
v 98.390414 3.384166 -8.828717
v 101.218066 3.384166 -8.828717
v 98.420207 15.918133 -8.785224
v 98.420207 15.918134 -4.744765
v 101.188274 15.918134 -4.744765
v 101.188274 15.918133 -8.785224
v 98.390414 3.384166 15.086761
v 101.218066 3.384166 15.086761
v 98.755969 25.174785 14.553172
v 100.852512 25.174785 14.553172
v 98.755969 25.174785 11.492908
v 100.852512 25.174785 11.492908
v 98.390414 3.384166 10.959319
v 101.218066 3.384166 10.959319
v 98.420207 15.918133 11.002811
v 98.420207 15.918134 15.043269
v 101.188274 15.918134 15.043269
v 101.188274 15.918133 11.002811
v 56.336139 25.097138 15.605537
v 101.324268 25.097138 15.846755
v 56.336139 28.044980 15.605537
v 101.324268 28.044980 15.846755
v 56.336139 28.044980 -10.436417
v 101.324268 28.044980 -10.540600
v 56.336139 25.097138 -10.436417
v 101.324268 25.097138 -10.540600
v 86.328227 28.044980 -8.937613
v 86.328227 25.097138 -8.937613
v 86.328227 25.097138 14.106735
v 86.328227 28.044980 14.106735
v 71.332179 28.044980 -9.689328
v 71.332179 25.097138 -9.689328
v 71.332179 25.097138 16.848625
v 71.332179 28.044980 16.848625
vt 0.776680 0.808280
vt 0.815289 0.808280
vt 0.810606 0.937392
vt 0.781363 0.937392
vt 0.776264 0.633455
vt 0.815705 0.633455
vt 0.169797 0.941384
vt 0.199040 0.941384
vt 0.199040 0.984069
vt 0.169797 0.984069
vt 0.963666 0.369192
vt 0.992909 0.369192
vt 0.997592 0.498304
vt 0.958983 0.498304
vt 0.998008 0.673129
vt 0.958568 0.673129
vt 0.084319 0.633455
vt 0.123759 0.633455
vt 0.123759 0.691025
vt 0.084319 0.691025
vt 0.713166 0.808280
vt 0.769522 0.808280
vt 0.762686 0.937392
vt 0.720002 0.937392
vt 0.712559 0.633455
vt 0.770129 0.633455
vt 0.649460 0.808280
vt 0.705817 0.808280
vt 0.698981 0.937392
vt 0.656296 0.937392
vt 0.648854 0.633455
vt 0.706424 0.633455
vt 0.603693 0.808280
vt 0.642303 0.808280
vt 0.637619 0.937392
vt 0.608377 0.937392
vt 0.603278 0.633455
vt 0.642718 0.633455
vt 0.095737 0.941384
vt 0.124980 0.941384
vt 0.124980 0.984069
vt 0.095737 0.984069
vt 0.918090 0.374009
vt 0.947333 0.374009
vt 0.952016 0.503122
vt 0.913407 0.503122
vt 0.952432 0.677947
vt 0.912992 0.677947
vt 0.038743 0.633455
vt 0.078183 0.633455
vt 0.078183 0.691025
vt 0.038743 0.691025
vt 0.540179 0.808280
vt 0.596536 0.808280
vt 0.589700 0.937392
vt 0.547015 0.937392
vt 0.539572 0.633455
vt 0.597142 0.633455
vt 0.476474 0.808280
vt 0.532830 0.808280
vt 0.525995 0.937392
vt 0.483310 0.937392
vt 0.475867 0.633455
vt 0.533437 0.633455
vt 0.430707 0.808280
vt 0.469316 0.808280
vt 0.464633 0.937392
vt 0.435390 0.937392
vt 0.430292 0.633455
vt 0.469732 0.633455
vt 0.132767 0.941384
vt 0.162010 0.941384
vt 0.162010 0.984069
vt 0.132767 0.984069
vt 0.872515 0.633455
vt 0.901758 0.633455
vt 0.906441 0.762568
vt 0.867831 0.762568
vt 0.906856 0.937392
vt 0.867416 0.937392
vt 0.001992 0.695016
vt 0.041432 0.695016
vt 0.041432 0.752586
vt 0.001992 0.752586
vt 0.367193 0.808280
vt 0.423549 0.808280
vt 0.416714 0.937392
vt 0.374029 0.937392
vt 0.366586 0.633455
vt 0.424156 0.633455
vt 0.303487 0.808280
vt 0.359844 0.808280
vt 0.353008 0.937392
vt 0.310323 0.937392
vt 0.302881 0.633455
vt 0.360451 0.633455
vt 0.257721 0.808280
vt 0.296330 0.808280
vt 0.291647 0.937392
vt 0.262404 0.937392
vt 0.257305 0.633455
vt 0.296745 0.633455
vt 0.206827 0.941384
vt 0.236070 0.941384
vt 0.236070 0.984069
vt 0.206827 0.984069
vt 0.826939 0.633455
vt 0.856182 0.633455
vt 0.860865 0.762568
vt 0.822256 0.762568
vt 0.861281 0.937392
vt 0.821840 0.937392
vt 0.048962 0.695016
vt 0.088402 0.695016
vt 0.088402 0.752586
vt 0.048962 0.752586
vt 0.194207 0.808280
vt 0.250563 0.808280
vt 0.243727 0.937392
vt 0.201042 0.937392
vt 0.193600 0.633455
vt 0.251170 0.633455
vt 0.130501 0.808280
vt 0.186858 0.808280
vt 0.180022 0.937392
vt 0.137337 0.937392
vt 0.129895 0.633455
vt 0.187465 0.633455
vt 0.001992 0.629463
vt 0.001992 0.420297
vt 0.043109 0.420297
vt 0.043109 0.629463
vt 0.001992 0.211130
vt 0.043109 0.211130
vt 0.001992 0.001964
vt 0.043109 0.001964
vt 0.068249 0.629463
vt 0.050911 0.420297
vt 0.421065 0.420297
vt 0.431485 0.629463
vt 0.089155 0.211130
vt 0.410580 0.211130
vt 0.064885 0.001964
vt 0.432938 0.001964
vt 0.440701 0.629463
vt 0.440701 0.420297
vt 0.481818 0.420297
vt 0.481818 0.629463
vt 0.440701 0.211131
vt 0.481818 0.211131
vt 0.440701 0.001964
vt 0.481818 0.001964
vt 0.490878 0.629463
vt 0.501299 0.420297
vt 0.871453 0.420297
vt 0.854114 0.629463
vt 0.511784 0.211130
vt 0.833209 0.211130
vt 0.489425 0.001964
vt 0.857479 0.001964
vt 0.879215 0.370018
vt 0.879215 0.001964
vt 0.920332 0.001964
vt 0.920332 0.370018
vt 0.927939 0.365200
vt 0.927939 0.001964
vt 0.969056 0.001964
vt 0.969056 0.365200
vn -0.823712 0.025391 0.566440
vn 0.823712 0.025391 0.566440
vn 0.809005 0.211185 0.548554
vn -0.809005 0.211185 0.548554
vn 0.809005 0.211185 -0.548554
vn -0.809005 0.211185 -0.548554
vn 0.823712 0.025391 -0.566440
vn -0.823712 0.025391 -0.566440
vn -0.811090 -0.181482 -0.556055
vn 0.811090 -0.181482 -0.556055
vn 0.811090 -0.181482 0.556055
vn -0.811090 -0.181482 0.556055
vn -0.823712 0.025391 0.566440
vn 0.823712 0.025391 0.566440
vn 0.809006 0.211185 0.548553
vn -0.809006 0.211184 0.548553
vn 0.809006 0.211185 -0.548553
vn -0.809006 0.211184 -0.548553
vn 0.823712 0.025391 -0.566440
vn -0.823712 0.025391 -0.566440
vn -0.811090 -0.181482 -0.556055
vn 0.811090 -0.181482 -0.556055
vn 0.811090 -0.181482 0.556055
vn -0.811090 -0.181482 0.556055
vn -0.823712 0.025391 0.566439
vn 0.823712 0.025391 0.566439
vn 0.809006 0.211184 0.548553
vn -0.809006 0.211185 0.548553
vn 0.809006 0.211184 -0.548553
vn -0.809006 0.211185 -0.548553
vn 0.823712 0.025391 -0.566439
vn -0.823712 0.025391 -0.566439
vn -0.811090 -0.181482 -0.556055
vn 0.811090 -0.181482 -0.556055
vn 0.811090 -0.181482 0.556055
vn -0.811090 -0.181482 0.556055
vn -0.823712 0.025391 0.566439
vn 0.823712 0.025391 0.566439
vn 0.809006 0.211185 0.548553
vn -0.809006 0.211185 0.548553
vn 0.809006 0.211185 -0.548553
vn -0.809006 0.211185 -0.548553
vn 0.823712 0.025391 -0.566439
vn -0.823712 0.025391 -0.566439
vn -0.811091 -0.181482 -0.556054
vn 0.811091 -0.181482 -0.556054
vn 0.811091 -0.181482 0.556054
vn -0.811091 -0.181482 0.556054
vn -0.189238 -0.976408 0.104007
vn 0.006240 -0.992153 0.124874
vn 0.006240 0.992153 0.124874
vn -0.189238 0.976408 0.104007
vn 0.005725 0.993400 -0.114561
vn -0.190475 0.975176 -0.112923
vn 0.005725 -0.993400 -0.114561
vn -0.190475 -0.975176 -0.112923
vn 0.205384 -0.970671 0.124961
vn 0.205278 -0.970790 -0.124206
vn 0.205278 0.970790 -0.124206
vn 0.205384 0.970671 0.124961
vn -0.003199 0.993622 -0.112714
vn -0.003199 -0.993622 -0.112714
vn 0.003614 -0.994125 0.108180
vn 0.003614 0.994125 0.108180
s 1
g pCube23
usemtl initialShadingGroup
f 10/1/1 11/2/2 4/3/3 3/4/4
f 3/7/4 4/8/3 6/9/5 5/10/6
f 5/11/6 6/12/5 12/13/7 9/14/8
f 7/17/9 8/18/10 2/19/11 1/20/12
f 11/21/2 12/22/7 6/23/5 4/24/3
f 9/27/8 10/28/1 3/29/4 5/30/6
f 7/31/9 1/32/12 10/28/1 9/27/8
f 1/5/12 2/6/11 11/2/2 10/1/1
f 2/25/11 8/26/10 12/22/7 11/21/2
f 9/14/8 12/13/7 8/15/10 7/16/9
s 2
f 22/33/13 23/34/14 16/35/15 15/36/16
f 15/39/16 16/40/15 18/41/17 17/42/18
f 17/43/18 18/44/17 24/45/19 21/46/20
f 19/49/21 20/50/22 14/51/23 13/52/24
f 23/53/14 24/54/19 18/55/17 16/56/15
f 21/59/20 22/60/13 15/61/16 17/62/18
f 19/63/21 13/64/24 22/60/13 21/59/20
f 13/37/24 14/38/23 23/34/14 22/33/13
f 14/57/23 20/58/22 24/54/19 23/53/14
f 21/46/20 24/45/19 20/47/22 19/48/21
s 3
f 34/65/25 35/66/26 28/67/27 27/68/28
f 27/71/28 28/72/27 30/73/29 29/74/30
f 29/75/30 30/76/29 36/77/31 33/78/32
f 31/81/33 32/82/34 26/83/35 25/84/36
f 35/85/26 36/86/31 30/87/29 28/88/27
f 33/91/32 34/92/25 27/93/28 29/94/30
f 31/95/33 25/96/36 34/92/25 33/91/32
f 25/69/36 26/70/35 35/66/26 34/65/25
f 26/89/35 32/90/34 36/86/31 35/85/26
f 33/78/32 36/77/31 32/79/34 31/80/33
s 4
f 46/97/37 47/98/38 40/99/39 39/100/40
f 39/103/40 40/104/39 42/105/41 41/106/42
f 41/107/42 42/108/41 48/109/43 45/110/44
f 43/113/45 44/114/46 38/115/47 37/116/48
f 47/117/38 48/118/43 42/119/41 40/120/39
f 45/123/44 46/124/37 39/125/40 41/126/42
f 43/127/45 37/128/48 46/124/37 45/123/44
f 37/101/48 38/102/47 47/98/38 46/97/37
f 38/121/47 44/122/46 48/118/43 47/117/38
f 45/110/44 48/109/43 44/111/46 43/112/45
s 5
f 49/129/49 63/130/50 64/131/51 51/132/52
f 51/137/52 64/138/51 61/139/53 53/140/54
f 53/145/54 61/146/53 62/147/55 55/148/56
f 55/153/56 62/154/55 63/155/50 49/156/49
f 50/161/57 56/162/58 54/163/59 52/164/60
f 55/165/56 49/166/49 51/167/52 53/168/54
f 57/149/61 54/151/59 56/152/58 58/150/62
f 59/158/63 58/157/62 56/159/58 50/160/57
f 60/134/64 59/133/63 50/135/57 52/136/60
f 57/142/61 60/141/64 52/143/60 54/144/59
f 61/146/53 57/149/61 58/150/62 62/147/55
f 63/155/50 62/154/55 58/157/62 59/158/63
f 64/131/51 63/130/50 59/133/63 60/134/64
f 61/139/53 64/138/51 60/141/64 57/142/61
