# This file uses centimeters as units for non-parametric coordinates.

mtllib Map.mtl
g default
v 66.522891 28.741119 7.670812
v 69.168021 28.109240 7.670812
v 71.924790 28.099930 7.670812
v 74.644348 28.099930 7.670812
v 77.363904 28.099930 7.670812
v 80.083460 28.099930 7.670812
v 82.803018 28.099930 7.670812
v 85.522573 28.099930 7.670812
v 88.242130 28.100361 7.670812
v 91.030550 28.264280 7.670812
v 93.612380 29.117630 7.670812
v 66.522891 28.741119 6.136649
v 69.168021 28.109240 6.136649
v 71.924790 28.099930 6.136649
v 74.644348 28.099930 6.136649
v 77.363904 28.099930 6.136649
v 80.083460 28.099930 6.136649
v 82.803018 28.099930 6.136649
v 85.522573 28.100780 6.136649
v 88.241804 28.108431 6.136649
v 91.029678 28.272457 6.136649
v 93.613253 29.115659 6.136649
v 66.522891 28.741119 4.602487
v 69.168021 28.109240 4.602487
v 71.924790 28.099930 4.602487
v 74.644348 28.099930 4.602487
v 77.363904 28.099930 4.602487
v 80.083460 28.099930 4.602487
v 82.803018 28.099930 4.602487
v 85.521946 28.111939 4.602487
v 88.236570 28.141094 4.602487
v 91.024211 28.279565 4.602487
v 93.618719 29.080669 4.602487
v 66.522891 28.741119 3.068324
v 69.168021 28.109240 3.068324
v 71.924790 28.099930 3.068324
v 74.644348 28.099930 3.068324
v 77.363904 28.099930 3.068324
v 80.083460 28.099930 3.068324
v 82.803018 28.100853 3.068324
v 85.517574 28.159172 3.068324
v 88.227216 28.195753 3.068324
v 91.015316 28.281587 3.068324
v 93.628110 29.009907 3.068324
v 66.522891 28.741119 1.534162
v 69.168021 28.109240 1.534162
v 71.924790 28.099930 1.534162
v 74.644348 28.099930 1.534162
v 77.363904 28.099930 1.534162
v 80.083460 28.099930 1.534162
v 82.802359 28.112047 1.534162
v 85.511421 28.229707 1.534162
v 88.217367 28.257490 1.534162
v 91.004890 28.256104 1.534162
v 93.640576 28.881242 1.534162
v 66.522891 28.741119 0.000000
v 69.168021 28.109240 0.000000
v 71.924790 28.099930 0.000000
v 74.644348 28.099930 0.000000
v 77.363904 28.099930 0.000000
v 80.083460 28.099930 0.000000
v 82.800452 28.140074 0.000000
v 85.506127 28.300777 0.000000
v 88.209580 28.303407 0.000000
v 90.994652 28.202860 0.000000
v 93.651323 28.717682 0.000000
v 66.522891 28.741119 -1.534163
v 69.168021 28.109240 -1.534163
v 71.924790 28.099930 -1.534163
v 74.644348 28.099930 -1.534163
v 77.363904 28.099930 -1.534163
v 80.083460 28.099930 -1.534163
v 82.798710 28.165749 -1.534163
v 85.502913 28.350982 -1.534163
v 88.204952 28.322741 -1.534163
v 90.985710 28.134726 -1.534163
v 93.656810 28.555537 -1.534163
v 66.522891 28.741119 -3.068324
v 69.168021 28.109240 -3.068324
v 71.924790 28.099930 -3.068324
v 74.644348 28.099930 -3.068324
v 77.363904 28.099930 -3.068324
v 80.083460 28.099930 -3.068324
v 82.798038 28.175756 -3.068324
v 85.501820 28.368289 -3.068324
v 88.202903 28.316377 -3.068324
v 90.979371 28.072404 -3.068324
v 93.657082 28.435231 -3.068324
v 66.522891 28.741119 -4.602487
v 69.168021 28.109240 -4.602487
v 71.924790 28.099930 -4.602487
v 74.644348 28.099930 -4.602487
v 77.363904 28.099930 -4.602487
v 80.083460 28.099930 -4.602487
v 82.798038 28.174749 -4.602487
v 85.501696 28.365260 -4.602487
v 88.201936 28.298660 -4.602487
v 90.975413 28.145672 -4.602487
v 93.655255 28.361729 -4.602487
v 66.522891 28.741119 -6.136650
v 69.168021 28.109240 -6.136650
v 71.924790 28.099930 -6.136650
v 74.644348 28.099930 -6.136650
v 77.363904 28.099930 -6.136650
v 80.083460 28.099930 -6.136650
v 82.798038 28.170570 -6.136650
v 85.501593 28.353446 -6.136650
v 88.201148 28.275491 -6.136650
v 90.973002 28.109934 -6.136650
v 93.653484 28.318558 -6.136650
v 66.522891 28.741119 -7.670812
v 69.168021 28.109240 -7.670812
v 71.924790 28.099930 -7.670812
v 74.644348 28.099930 -7.670812
v 77.363904 28.099930 -7.670812
v 80.083460 28.099930 -7.670812
v 82.798038 28.163997 -7.670812
v 85.501493 28.331838 -7.670812
v 88.200348 28.241029 -7.670812
v 90.971239 28.070277 -7.670812
v 93.651627 28.283807 -7.670812
vt 0.134656 0.021321
vt 0.226108 0.021321
vt 0.226108 0.111538
vt 0.134656 0.111538
vt 0.316326 0.021321
vt 0.316326 0.111538
vt 0.226108 0.201755
vt 0.134656 0.201755
vt 0.046907 0.021321
vt 0.046907 0.111538
vt 0.406544 0.021321
vt 0.406544 0.111538
vt 0.316326 0.201755
vt 0.226108 0.291972
vt 0.134656 0.291972
vt 0.046907 0.201755
vt 0.496761 0.021321
vt 0.496761 0.111538
vt 0.406544 0.201755
vt 0.316326 0.291972
vt 0.226108 0.382192
vt 0.134656 0.382192
vt 0.046907 0.291972
vt 0.586980 0.021321
vt 0.586980 0.111538
vt 0.496761 0.201755
vt 0.406544 0.291972
vt 0.316326 0.382192
vt 0.226108 0.472409
vt 0.134656 0.472409
vt 0.046907 0.382192
vt 0.677197 0.021321
vt 0.677197 0.111538
vt 0.586980 0.201755
vt 0.496761 0.291972
vt 0.406544 0.382192
vt 0.316326 0.472409
vt 0.226108 0.562626
vt 0.134656 0.562626
vt 0.046907 0.472409
vt 0.767415 0.021321
vt 0.767404 0.111538
vt 0.677176 0.201755
vt 0.586980 0.291972
vt 0.496761 0.382192
vt 0.406544 0.472409
vt 0.316326 0.562626
vt 0.226108 0.652846
vt 0.134656 0.652846
vt 0.046907 0.562626
vt 0.859917 0.021321
vt 0.859888 0.111538
vt 0.767230 0.201755
vt 0.677031 0.291972
vt 0.586958 0.382192
vt 0.496761 0.472409
vt 0.406544 0.562626
vt 0.316326 0.652846
vt 0.226108 0.743063
vt 0.134656 0.743063
vt 0.046907 0.652846
vt 0.945566 0.021321
vt 0.945595 0.111538
vt 0.859707 0.201755
vt 0.766921 0.291972
vt 0.676828 0.382192
vt 0.586894 0.472409
vt 0.496761 0.562626
vt 0.406544 0.652846
vt 0.316326 0.743063
vt 0.226108 0.833280
vt 0.134656 0.833280
vt 0.046907 0.743063
vt 0.945776 0.201755
vt 0.860907 0.292505
vt 0.766594 0.382192
vt 0.676651 0.472409
vt 0.586837 0.562626
vt 0.496761 0.652846
vt 0.406544 0.743063
vt 0.316326 0.833280
vt 0.226108 0.923497
vt 0.134656 0.923497
vt 0.046907 0.833280
vt 0.945186 0.290756
vt 0.861227 0.382744
vt 0.766336 0.472409
vt 0.676545 0.562626
vt 0.586814 0.652846
vt 0.496761 0.743063
vt 0.406544 0.833280
vt 0.316326 0.923497
vt 0.046907 0.923497
vt 0.858727 0.472409
vt 0.766181 0.562626
vt 0.676508 0.652846
vt 0.586814 0.743063
vt 0.496761 0.833280
vt 0.406544 0.923497
vt 0.940086 0.381242
vt 0.946857 0.472409
vt 0.858429 0.562626
vt 0.766114 0.652846
vt 0.676504 0.743063
vt 0.586814 0.833280
vt 0.496761 0.923497
vt 0.947040 0.562626
vt 0.858219 0.652846
vt 0.766082 0.743063
vt 0.676501 0.833280
vt 0.586814 0.923497
vt 0.947048 0.652846
vt 0.858088 0.743063
vt 0.766055 0.833280
vt 0.676498 0.923497
vt 0.946989 0.743063
vt 0.858007 0.833280
vt 0.766029 0.923497
vt 0.946930 0.833280
vt 0.857949 0.923497
vt 0.946867 0.923497
vn 0.232347 0.972633 0.000000
vn 0.117870 0.993029 0.000000
vn 0.117870 0.993029 0.000000
vn 0.232347 0.972633 0.000000
vn 0.001700 0.999999 0.000000
vn 0.001700 0.999999 0.000000
vn 0.000000 1.000000 0.000000
vn 0.000000 1.000000 0.000000
vn 0.000000 1.000000 0.000000
vn 0.000000 1.000000 0.000000
vn 0.000000 1.000000 0.000000
vn 0.000000 1.000000 0.000000
vn -0.000078 1.000000 0.000139
vn -0.000630 0.999999 0.000979
vn -0.000821 0.999999 0.001592
vn -0.002694 0.999983 0.005277
vn -0.030476 0.999527 0.004125
vn -0.030638 0.999491 0.008909
vn -0.184839 0.982762 0.003674
vn -0.181767 0.983337 0.003044
vn -0.312044 0.950066 0.001922
vn -0.307404 0.951573 -0.003312
vn 0.117870 0.993029 0.000000
vn 0.232347 0.972633 0.000000
vn 0.001700 0.999999 0.000000
vn 0.000000 1.000000 0.000000
vn 0.000000 1.000000 0.000000
vn -0.000042 1.000000 0.000075
vn -0.003867 0.999981 0.004910
vn -0.008545 0.999824 0.016712
vn -0.028583 0.999396 0.019780
vn -0.169507 0.985529 0.000611
vn -0.292528 0.956141 -0.014908
vn 0.117870 0.993029 0.000000
vn 0.232347 0.972633 0.000000
vn 0.001700 0.999999 0.000000
vn 0.000000 1.000000 0.000000
vn 0.000000 1.000000 0.000000
vn -0.000642 0.999999 0.000987
vn -0.011971 0.999861 0.011578
vn -0.017351 0.999409 0.029686
vn -0.019960 0.999447 0.026592
vn -0.146609 0.989146 -0.009809
vn -0.266494 0.963221 -0.034431
vn 0.117870 0.993029 0.000000
vn 0.232347 0.972633 0.000000
vn 0.001700 0.999999 0.000000
vn 0.000000 1.000000 0.000000
vn 0.000000 1.000000 0.000000
vn -0.003002 0.999990 0.003196
vn -0.023906 0.999553 0.017943
vn -0.025359 0.999062 0.035085
vn -0.003500 0.999743 0.022412
vn -0.113583 0.993160 -0.027050
vn -0.231177 0.971172 -0.058156
vn 0.117870 0.993029 0.000000
vn 0.232347 0.972633 0.000000
vn 0.001700 0.999999 0.000000
vn 0.000000 1.000000 0.000000
vn 0.000000 1.000000 0.000000
vn -0.007276 0.999964 0.004378
vn -0.036035 0.999176 0.018666
vn -0.029055 0.999143 0.029471
vn 0.017583 0.999793 0.010261
vn -0.076982 0.996221 -0.040215
vn -0.192604 0.978698 -0.071091
vn 0.117870 0.993029 0.000000
vn 0.232347 0.972633 0.000000
vn 0.001700 0.999999 0.000000
vn 0.000000 1.000000 0.000000
vn 0.000000 1.000000 0.000000
vn -0.011389 0.999931 0.002909
vn -0.044770 0.998933 0.011348
vn -0.028525 0.999481 0.014958
vn 0.037615 0.999287 -0.003333
vn -0.045415 0.998063 -0.042528
vn -0.159347 0.984986 -0.066413
vn 0.117870 0.993029 0.000000
vn 0.232347 0.972633 0.000000
vn 0.001700 0.999999 0.000000
vn 0.000000 1.000000 0.000000
vn 0.000000 1.000000 0.000000
vn -0.013445 0.999909 0.000734
vn -0.048544 0.998818 0.002639
vn -0.025966 0.999662 0.001099
vn 0.046825 0.998901 -0.001991
vn -0.024063 0.999588 -0.015649
vn -0.126784 0.991470 -0.030212
vn 0.117870 0.993029 0.000000
vn 0.232347 0.972633 0.000000
vn 0.001700 0.999999 0.000000
vn 0.000000 1.000000 0.000000
vn 0.000000 1.000000 0.000000
vn -0.013621 0.999907 -0.000422
vn -0.048511 0.998821 -0.002049
vn -0.022807 0.999721 -0.006170
vn 0.044651 0.998991 -0.004772
vn -0.013336 0.999890 -0.006537
vn -0.093398 0.995550 -0.012527
vn 0.117870 0.993029 0.000000
vn 0.232347 0.972633 0.000000
vn 0.001700 0.999999 0.000000
vn 0.000000 1.000000 0.000000
vn 0.000000 1.000000 0.000000
vn -0.012888 0.999916 -0.000875
vn -0.046291 0.998918 -0.004465
vn -0.018995 0.999759 -0.011011
vn 0.044175 0.998856 -0.018309
vn -0.008793 0.999690 -0.023278
vn -0.078720 0.996588 -0.024805
vn 0.117870 0.993029 0.000000
vn 0.232347 0.972633 0.000000
vn 0.001700 0.999999 0.000000
vn 0.000000 1.000000 0.000000
vn 0.000000 1.000000 0.000000
vn -0.012394 0.999923 -0.001070
vn -0.044736 0.998983 -0.005647
vn -0.016874 0.999763 -0.013722
vn 0.046164 0.998707 -0.021269
vn -0.007780 0.999677 -0.024175
vn -0.078482 0.996625 -0.024076
s 1
g pPlane2
usemtl initialShadingGroup
f 1/9/1 2/1/2 13/4/3 12/10/4
f 2/1/2 3/2/5 14/3/6 13/4/3
f 3/2/5 4/5/7 15/6/8 14/3/6
f 4/5/7 5/11/9 16/12/10 15/6/8
f 5/11/9 6/17/11 17/18/12 16/12/10
f 6/17/11 7/24/13 18/25/14 17/18/12
f 7/24/13 8/32/15 19/33/16 18/25/14
f 8/32/15 9/41/17 20/42/18 19/33/16
f 9/41/17 10/51/19 21/52/20 20/42/18
f 10/51/19 11/62/21 22/63/22 21/52/20
f 12/10/4 13/4/3 24/8/23 23/16/24
f 13/4/3 14/3/6 25/7/25 24/8/23
f 14/3/6 15/6/8 26/13/26 25/7/25
f 15/6/8 16/12/10 27/19/27 26/13/26
f 16/12/10 17/18/12 28/26/28 27/19/27
f 17/18/12 18/25/14 29/34/29 28/26/28
f 18/25/14 19/33/16 30/43/30 29/34/29
f 19/33/16 20/42/18 31/53/31 30/43/30
f 20/42/18 21/52/20 32/64/32 31/53/31
f 21/52/20 22/63/22 33/74/33 32/64/32
f 23/16/24 24/8/23 35/15/34 34/23/35
f 24/8/23 25/7/25 36/14/36 35/15/34
f 25/7/25 26/13/26 37/20/37 36/14/36
f 26/13/26 27/19/27 38/27/38 37/20/37
f 27/19/27 28/26/28 39/35/39 38/27/38
f 28/26/28 29/34/29 40/44/40 39/35/39
f 29/34/29 30/43/30 41/54/41 40/44/40
f 30/43/30 31/53/31 42/65/42 41/54/41
f 31/53/31 32/64/32 43/75/43 42/65/42
f 32/64/32 33/74/33 44/85/44 43/75/43
f 34/23/35 35/15/34 46/22/45 45/31/46
f 35/15/34 36/14/36 47/21/47 46/22/45
f 36/14/36 37/20/37 48/28/48 47/21/47
f 37/20/37 38/27/38 49/36/49 48/28/48
f 38/27/38 39/35/39 50/45/50 49/36/49
f 39/35/39 40/44/40 51/55/51 50/45/50
f 40/44/40 41/54/41 52/66/52 51/55/51
f 41/54/41 42/65/42 53/76/53 52/66/52
f 42/65/42 43/75/43 54/86/54 53/76/53
f 43/75/43 44/85/44 55/100/55 54/86/54
f 45/31/46 46/22/45 57/30/56 56/40/57
f 46/22/45 47/21/47 58/29/58 57/30/56
f 47/21/47 48/28/48 59/37/59 58/29/58
f 48/28/48 49/36/49 60/46/60 59/37/59
f 49/36/49 50/45/50 61/56/61 60/46/60
f 50/45/50 51/55/51 62/67/62 61/56/61
f 51/55/51 52/66/52 63/77/63 62/67/62
f 52/66/52 53/76/53 64/87/64 63/77/63
f 53/76/53 54/86/54 65/94/65 64/87/64
f 54/86/54 55/100/55 66/101/66 65/94/65
f 56/40/57 57/30/56 68/39/67 67/50/68
f 57/30/56 58/29/58 69/38/69 68/39/67
f 58/29/58 59/37/59 70/47/70 69/38/69
f 59/37/59 60/46/60 71/57/71 70/47/70
f 60/46/60 61/56/61 72/68/72 71/57/71
f 61/56/61 62/67/62 73/78/73 72/68/72
f 62/67/62 63/77/63 74/88/74 73/78/73
f 63/77/63 64/87/64 75/95/75 74/88/74
f 64/87/64 65/94/65 76/102/76 75/95/75
f 65/94/65 66/101/66 77/107/77 76/102/76
f 67/50/68 68/39/67 79/49/78 78/61/79
f 68/39/67 69/38/69 80/48/80 79/49/78
f 69/38/69 70/47/70 81/58/81 80/48/80
f 70/47/70 71/57/71 82/69/82 81/58/81
f 71/57/71 72/68/72 83/79/83 82/69/82
f 72/68/72 73/78/73 84/89/84 83/79/83
f 73/78/73 74/88/74 85/96/85 84/89/84
f 74/88/74 75/95/75 86/103/86 85/96/85
f 75/95/75 76/102/76 87/108/87 86/103/86
f 76/102/76 77/107/77 88/112/88 87/108/87
f 78/61/79 79/49/78 90/60/89 89/73/90
f 79/49/78 80/48/80 91/59/91 90/60/89
f 80/48/80 81/58/81 92/70/92 91/59/91
f 81/58/81 82/69/82 93/80/93 92/70/92
f 82/69/82 83/79/83 94/90/94 93/80/93
f 83/79/83 84/89/84 95/97/95 94/90/94
f 84/89/84 85/96/85 96/104/96 95/97/95
f 85/96/85 86/103/86 97/109/97 96/104/96
f 86/103/86 87/108/87 98/113/98 97/109/97
f 87/108/87 88/112/88 99/116/99 98/113/98
f 89/73/90 90/60/89 101/72/100 100/84/101
f 90/60/89 91/59/91 102/71/102 101/72/100
f 91/59/91 92/70/92 103/81/103 102/71/102
f 92/70/92 93/80/93 104/91/104 103/81/103
f 93/80/93 94/90/94 105/98/105 104/91/104
f 94/90/94 95/97/95 106/105/106 105/98/105
f 95/97/95 96/104/96 107/110/107 106/105/106
f 96/104/96 97/109/97 108/114/108 107/110/107
f 97/109/97 98/113/98 109/117/109 108/114/108
f 98/113/98 99/116/99 110/119/110 109/117/109
f 100/84/101 101/72/100 112/83/111 111/93/112
f 101/72/100 102/71/102 113/82/113 112/83/111
f 102/71/102 103/81/103 114/92/114 113/82/113
f 103/81/103 104/91/104 115/99/115 114/92/114
f 104/91/104 105/98/105 116/106/116 115/99/115
f 105/98/105 106/105/106 117/111/117 116/106/116
f 106/105/106 107/110/107 118/115/118 117/111/117
f 107/110/107 108/114/108 119/118/119 118/115/118
f 108/114/108 109/117/109 120/120/120 119/118/119
f 109/117/109 110/119/110 121/121/121 120/120/120
